# AST/ASF file generated using VICON BodyLanguage
# -----------------------------------------------
:version 1.10
:name VICON
:units
  mass 1.0
  length 0.45
  angle deg
:documentation
   .ast/.asf automatically generated from VICON data using
   VICON BodyBuilder and BodyLanguage model FoxedUp or BRILLIANT.MOD
:root
   order TX TY TZ RX RY RZ
   axis XYZ
   position 0 0 0  
   orientation 0 0 0 
:bonedata
  begin
     id 1 
     name lhipjoint
     direction 0.598477 -0.721498 0.348234 
     length 2.38516 
     axis 0 0 0  XYZ
  end
  begin
     id 2 
     name lfemur
     direction 0.34202 -0.939693 0  
     length 6.81097  
     axis 0 0 20  XYZ
    dof rx ry rz
    limits (-160.0 20.0)
           (-70.0 70.0)
           (-60.0 70.0)
  end
  begin
     id 3 
     name ltibia
     direction 0.34202 -0.939693 0   
     length 7.43697   
     axis 0 0 20   XYZ
    dof rx
    limits (-10.0 170.0)
  end
  begin
     id 4 
     name lfoot
     direction 0.0644912 -0.177188 0.982062   
     length 2.0384   
     axis -90 7.62852e-016 20   XYZ
    dof rx rz
    limits (-45.0 90.0)
           (-70.0 20.0)
  end
  begin
     id 5 
     name ltoes
     direction 1.53517e-011 -4.21905e-011 1   
     length 1.02854   
     axis -90 7.62852e-016 20   XYZ
    dof rx
    limits (-90.0 20.0)
  end
  begin
     id 6 
     name rhipjoint
     direction -0.591517 -0.726138 0.350474   
     length 2.36992  
     axis 0 0 0  XYZ 
  end
  begin
     id 7 
     name rfemur
     direction -0.34202 -0.939693 0   
     length 6.93503   
     axis 0 0 -20   XYZ
    dof rx ry rz
    limits (-160.0 20.0)
           (-70.0 70.0)
           (-70.0 60.0)
  end
  begin
     id 8 
     name rtibia
     direction -0.34202 -0.939693 0   
     length 7.45107   
     axis 0 0 -20   XYZ
    dof rx
    limits (-10.0 170.0)
 end
 begin
     id 9 
     name rfoot
     direction -0.0677555 -0.186157 0.980181   
     length 1.90244  
     axis -90 -7.62852e-016 -20   XYZ
    dof rx rz
    limits (-45.0 90.0)
           (-20.0 70.0)
  end
  begin
     id 10 
     name rtoes
     direction -1.53409e-011 -4.21428e-011 1   
     length 0.961454   
     axis -90 -7.62852e-016 -20   XYZ
    dof rx
    limits (-90.0 20.0)
  end
  begin
     id 11 
     name lowerback
     direction -0.0289484 0.992437 0.119291   
     length 1.96261   
     axis 0 0 0   XYZ
    dof rx ry rz
    limits (-20.0 45.0)
           (-30.0 30.0)
           (-30.0 30.0)
  end
  begin
     id 12 
     name upperback
     direction 0.0109352 0.999834 0.0146028   
     length 1.96894   
     axis 0 0 0   XYZ
    dof rx ry rz
    limits (-20.0 45.0)
           (-30.0 30.0)
           (-30.0 30.0)
  end
  begin
     id 13 
     name thorax
     direction 0.0232227 0.998895 -0.0408582   
     length 2.00029   
     axis 0 0 0   XYZ
    dof rx ry rz
    limits (-20.0 45.0)
           (-30.0 30.0)
           (-30.0 30.0)
  end
  begin
     id 14 
     name lowerneck
     direction -0.00291659 0.999583 0.0287188   
     length 1.72722   
     axis 0 0 0   XYZ
    dof rx ry rz
    limits (-20.0 45.0)
           (-30.0 30.0)
           (-30.0 30.0)
  end
  begin
     id 15 
     name upperneck
     direction 0.0277639 0.998467 -0.0478817   
     length 1.68525   
     axis 0 0 0   XYZ
    dof rx ry rz
    limits (-20.0 45.0)
           (-30.0 30.0)
           (-30.0 30.0)
  end
  begin
     id 16
     name head
     direction 0.00895921 0.999741 -0.020943  
     length 1.78934  
     axis 0 0 0   XYZ
    dof rx ry rz
    limits (-20.0 45.0)
           (-30.0 30.0)
           (-30.0 30.0)
  end
  begin
     id 17 
     name lclavicle
     direction 0.907972 0.393865 -0.143029  
     length 3.37543  
     axis 0 0 0   XYZ
    dof ry rz
    limits (-20.0 10.0)
           (0.0 20.0)
  end
  begin
     id 18 
     name lhumerus
     direction 1 -4.48915e-011 -1.10425e-027   
     length 4.94762   
     axis -180 -30 -90   XYZ
    dof rx ry rz
    limits (-60.0 90.0)
           (-90.0 90.0)
           (-90.0 90.0)
  end
  begin
     id 19
     name lradius
     direction 1 1.63657e-005 -9.44877e-006   
     length 3.11144   
     axis -180 -30 -90   XYZ
    dof rx
    limits (-10.0 170.0)
  end
  begin
     id 20
     name lwrist
     direction 1 -5.04565e-007 -1.8883e-005   
     length 1.55572   
     axis 1.22104e-015 90 90   XYZ
    dof ry
    limits (-180.0 0.0)
 end
  begin
     id 21 
     name lhand
     direction 1 -4.48949e-011 -2.20333e-027   
     length 0.686387   
     axis 1.40591e-015 90 90   XYZ
    dof rx rz
    limits (-90.0 90.0)
           (-45.0 45.0)
  end
  begin
     id 22 
     name lfingers
     direction 1 -4.49191e-011 -4.40665e-027   
     length 0.553383   
     axis 2.81182e-015 90 90   XYZ
    dof rx
    limits (0.0 90.0)
  end
  begin
     id 23
     name lthumb
     direction 0.707107 -6.35116e-011 0.707107   
     length 0.79455   
     axis -90 45 2.85299e-015   XYZ
    dof rx rz
    limits (-45.0 45.0)
           (-45.0 45.0)
  end
  begin
     id 24 
     name rclavicle
     direction -0.947168 0.319303 -0.0302977   
     length 3.53547  
     axis 0 0 0   XYZ 
    dof ry rz
    limits (-10.0 20.0)
           (-20.0 0.0)
  end
  begin
     id 25 
     name rhumerus
     direction -1 -0.000401632 0.000196042  
     length 4.77566   
     axis -180 30 90   XYZ
    dof rx ry rz
    limits (-90.0 60.0)
           (-90.0 90.0)
           (-90.0 90.0)
  end
  begin
     id 26 
     name rradius
     direction -1 -4.49012e-011 -4.87197e-027   
     length 3.21433   
     axis -180 30 90   XYZ
    dof rx
    limits (-10.0 170.0)
  end
  begin
     id 27 
     name rwrist
     direction -1 -4.48899e-011 -5.86351e-027   
     length 1.60716   
     axis 3.17445e-015 -90 -90   XYZ
    dof ry
    limits (-180.0 0.0)
  end
  begin
     id 28
     name rhand
     direction -0.999958 0.00678358 -0.00613214   
     length 0.625487   
     axis 7.48284e-015 -90 -90   XYZ
    dof rx rz
    limits (-90.0 90.0)
           (-45.0 45.0)
  end
  begin
     id 29
     name rfingers
     direction -1 -4.48756e-011 -2.3454e-026   
     length 0.505648   
     axis 1.49657e-014 -90 -90   XYZ
    dof rx
    limits (0.0 90.0)
  end
  begin
     id 30
     name rthumb
     direction -0.708559 0.00587598 0.705627   
     length 0.722099   
     axis -90 -45 -2.85299e-015   XYZ
    dof rx rz
    limits (-45.0 45.0)
           (-45.0 45.0)
  end
:hierarchy
  begin
    root lhipjoint rhipjoint lowerback
    lhipjoint lfemur
    lfemur ltibia
    ltibia lfoot
    lfoot ltoes
    rhipjoint rfemur
    rfemur rtibia
    rtibia rfoot
    rfoot rtoes
    lowerback upperback
    upperback thorax
    thorax lowerneck lclavicle rclavicle
    lowerneck upperneck
    upperneck head
    lclavicle lhumerus
    lhumerus lradius
    lradius lwrist
    lwrist lhand lthumb
    lhand lfingers
    rclavicle rhumerus
    rhumerus rradius
    rradius rwrist
    rwrist rhand rthumb
    rhand rfingers
  end

#!OML:ASF C:\Documents and Settings\Administrator\Desktop\SteveTeapot.ASF
:FULLY-SPECIFIED
:DEGREES
304
root -0.530247 16.4723 -7.91301 16.5522 -1.47122 1.37731
lowerback -14.3255 -1.55409 -3.71317
upperback -3.24992 -1.57471 1.16654
thorax 4.71989 -0.823815 3.04349
lowerneck -5.93096 -1.34636 0.145804
upperneck 9.90245 -2.02584 1.84985
head 4.34318 -0.903839 0.481999
rclavicle -3.72721e-015 4.37326e-015
rhumerus -34.3359 35.3226 -91.7381
rradius 118.145
rwrist -4.59994
rhand -34.7807 -20.5807
rfingers 7.12502
rthumb -7.93315 -50.4118
lclavicle -3.72721e-015 4.37326e-015
lhumerus -25.0818 -28.5653 91.9148
lradius 120.414
lwrist 6.49489
lhand -30.2077 -71.8293
lfingers 7.12502
lthumb -3.51801 -41.8786
rfemur -30.0723 -4.81722 16.3393
rtibia 37.5335
rfoot -23.7633 -5.10252
rtoes -22.2762
lfemur -30.9981 1.96294 -18.8916
ltibia 36.2075
lfoot -18.2667 9.19109
ltoes -19.4284
305
root -0.533472 16.47 -7.91683 16.5291 -1.45186 1.36071
lowerback -14.2613 -1.5451 -3.77172
upperback -3.30883 -1.55845 1.18922
thorax 4.62331 -0.813776 3.10517
lowerneck -5.76671 -1.33691 0.0887387
upperneck 9.91119 -2.01163 1.89986
head 4.31456 -0.897492 0.510716
rclavicle -1.43995e-014 -1.07344e-014
rhumerus -33.0782 34.0853 -90.5843
rradius 118.981
rwrist -8.44864
rhand -35.2195 -13.814
rfingers 7.12502
rthumb -8.35658 -43.6287
lclavicle -1.43995e-014 -1.07344e-014
lhumerus -24.6328 -28.7655 91.6649
lradius 120.927
lwrist 6.64441
lhand -31.7957 -79.4602
lfingers 7.12502
lthumb -5.05147 -49.5404
rfemur -30.0778 -4.78719 16.3727
rtibia 37.5582
rfoot -23.8239 -5.16055
rtoes -22.2142
lfemur -31.0047 1.95271 -18.8538
ltibia 36.2282
lfoot -18.2177 9.16035
ltoes -19.2753
306
root -0.535211 16.4681 -7.91978 16.5176 -1.43756 1.35703
lowerback -14.1988 -1.53833 -3.81228
upperback -3.37409 -1.54738 1.2032
thorax 4.52073 -0.805774 3.14648
lowerneck -5.54646 -1.34525 0.0054062
upperneck 9.93923 -2.02032 1.9616
head 4.28249 -0.903108 0.547041
rclavicle 1.9307e-014 -5.96354e-015
rhumerus -32.6283 34.3773 -90.6218
rradius 120.051
rwrist -6.85167
rhand -35.2805 -15.9629
rfingers 7.12502
rthumb -8.41551 -45.7752
lclavicle 1.9307e-014 -5.96354e-015
lhumerus -24.1108 -29.0318 91.3884
lradius 121.286
lwrist 6.82312
lhand -31.8159 -81.7011
lfingers 7.12502
lthumb -5.07099 -51.7818
rfemur -30.0917 -4.70594 16.3672
rtibia 37.6058
rfoot -23.7824 -5.08303
rtoes -21.4529
lfemur -31.0169 1.94577 -18.8372
ltibia 36.2371
lfoot -18.1902 9.14031
ltoes -19.1946
307
root -0.533981 16.4697 -7.92037 16.5218 -1.36134 1.30864
lowerback -14.2075 -1.52986 -3.73752
upperback -3.39778 -1.54766 1.21826
thorax 4.49915 -0.804398 3.11999
lowerneck -5.5407 -1.35897 -0.0562667
upperneck 10.0923 -2.03635 1.96429
head 4.33774 -0.912088 0.558178
rclavicle -1.26228e-014 1.98785e-016
rhumerus -31.1961 34.3266 -90.1467
rradius 120.504
rwrist -6.78312
rhand -35.9987 -14.2677
rfingers 7.12502
rthumb -9.10856 -44.051
lclavicle -1.26228e-014 1.98785e-016
lhumerus -23.5146 -29.231 91.1216
lradius 121.545
lwrist 6.93599
lhand -30.6886 -81.8992
lfingers 7.12502
lthumb -3.98243 -51.9567
rfemur -30.0967 -4.80155 16.4433
rtibia 37.6448
rfoot -23.7867 -5.08338
rtoes -21.455
lfemur -31.0458 1.91194 -18.7772
ltibia 36.2702
lfoot -18.2622 9.12815
ltoes -19.01
308
root -0.531468 16.4693 -7.92057 16.4555 -1.2582 1.45542
lowerback -14.1844 -1.55317 -3.81074
upperback -3.3619 -1.5652 1.16158
thorax 4.5261 -0.814607 3.09847
lowerneck -5.58721 -1.35476 -0.0596869
upperneck 10.1413 -2.03072 1.9559
head 4.36473 -0.909162 0.556063
rclavicle -1.54058e-015 1.78906e-014
rhumerus -30.0829 34.2726 -89.7497
rradius 120.829
rwrist -6.32406
rhand -36.5146 -12.4663
rfingers 7.12502
rthumb -9.60633 -42.2273
lclavicle -1.54058e-015 1.78906e-014
lhumerus -23.0788 -29.4421 90.9585
lradius 121.877
lwrist 6.92629
lhand -28.994 -80.9597
lfingers 7.12502
lthumb -2.34588 -50.9928
rfemur -30.0424 -5.1006 16.3221
rtibia 37.6949
rfoot -23.8436 -5.03174
rtoes -21.9235
lfemur -30.9948 1.79521 -18.9284
ltibia 36.3017
lfoot -18.3331 9.06541
ltoes -18.8252
309
root -0.531604 16.4652 -7.92375 16.432 -1.12165 1.43093
lowerback -14.1145 -1.5569 -3.75685
upperback -3.41869 -1.58087 1.15714
thorax 4.42792 -0.819015 3.06191
lowerneck -5.43715 -1.34112 -0.0631567
upperneck 10.1668 -2.01714 2.00705
head 4.34433 -0.900845 0.575482
rclavicle 7.83957e-015 -7.95139e-015
rhumerus -30.0845 34.1936 -89.8026
rradius 121.281
rwrist -5.26681
rhand -36.2537 -12.6817
rfingers 7.12502
rthumb -9.35459 -42.4541
lclavicle 7.83957e-015 -7.95139e-015
lhumerus -22.6955 -29.8085 90.8444
lradius 122.066
lwrist 6.91118
lhand -27.3761 -79.2072
lfingers 7.12502
lthumb -0.783323 -49.2289
rfemur -30.0521 -5.24198 16.397
rtibia 37.735
rfoot -23.8283 -5.12587
rtoes -22.5371
lfemur -31.0566 1.75541 -18.8825
ltibia 36.3705
lfoot -18.3719 9.02788
ltoes -19.21
310
root -0.535249 16.4635 -7.92822 16.4367 -1.08463 1.32194
lowerback -14.1113 -1.52166 -3.68897
upperback -3.41998 -1.54518 1.17853
thorax 4.42091 -0.800643 3.05251
lowerneck -5.58217 -1.33943 -0.153463
upperneck 10.3715 -2.02932 2.17229
head 4.45211 -0.899703 0.646213
rclavicle -4.95719e-015 9.34288e-015
rhumerus -29.3498 33.7321 -89.4426
rradius 121.402
rwrist -6.44761
rhand -35.9351 -9.75478
rfingers 7.12502
rthumb -9.04713 -39.5408
lclavicle -4.95719e-015 9.34288e-015
lhumerus -22.0904 -30.1785 90.6639
lradius 121.995
lwrist 6.89088
lhand -26.0607 -78.5904
lfingers 7.12502
lthumb 0.487166 -48.6112
rfemur -30.1011 -5.16311 16.534
rtibia 37.7701
rfoot -23.8455 -5.2027
rtoes -22.1919
lfemur -31.1547 1.82933 -18.7636
ltibia 36.4712
lfoot -18.3649 9.0291
ltoes -19.2061
311
root -0.541349 16.4622 -7.93185 16.3901 -1.06557 1.17766
lowerback -14.1208 -1.48954 -3.63376
upperback -3.3655 -1.51178 1.21829
thorax 4.48072 -0.78569 3.06864
lowerneck -5.82439 -1.33812 -0.133826
upperneck 10.6057 -2.03864 2.19387
head 4.58704 -0.898862 0.648744
rclavicle 9.13167e-015 -1.49089e-014
rhumerus -28.5917 34.3062 -89.537
rradius 121.786
rwrist -4.91386
rhand -35.8827 -13.0408
rfingers 7.12502
rthumb -8.99658 -42.8289
lclavicle 9.13167e-015 -1.49089e-014
lhumerus -21.3977 -30.5177 90.4169
lradius 121.842
lwrist 6.91232
lhand -25.2015 -78.4178
lfingers 7.12502
lthumb 1.31696 -48.4421
rfemur -30.0611 -4.96511 16.6951
rtibia 37.7956
rfoot -23.8043 -5.34138
rtoes -21.9171
lfemur -31.1911 1.84972 -18.5737
ltibia 36.6092
lfoot -18.3487 9.03095
ltoes -19.0417
312
root -0.542858 16.459 -7.93151 16.3242 -1.01419 1.04326
lowerback -14.1114 -1.45651 -3.50759
upperback -3.40327 -1.48732 1.22695
thorax 4.43109 -0.770911 3.01105
lowerneck -5.68569 -1.35732 -0.0507011
upperneck 10.7345 -2.07114 2.15825
head 4.60455 -0.913157 0.620785
rclavicle -1.01877e-015 -7.7526e-015
rhumerus -28.1278 34.2673 -89.6194
rradius 121.968
rwrist -5.63538
rhand -36.1792 -12.2691
rfingers 7.12502
rthumb -9.2827 -42.0447
lclavicle -1.01877e-015 -7.7526e-015
lhumerus -20.8567 -30.9517 90.2392
lradius 121.672
lwrist 6.92321
lhand -25.1678 -73.2053
lfingers 7.12502
lthumb 1.34946 -43.2298
rfemur -29.9708 -4.91179 16.8445
rtibia 37.8156
rfoot -23.7948 -5.40111
rtoes -22.0618
lfemur -31.1964 1.82241 -18.3989
ltibia 36.7622
lfoot -18.3811 9.04052
ltoes -18.9714
313
root -0.541964 16.456 -7.93239 16.2985 -0.949307 1.0883
lowerback -14.1247 -1.47132 -3.5472
upperback -3.43613 -1.4996 1.20185
thorax 4.40487 -0.776229 3.00489
lowerneck -5.50229 -1.3386 -0.0586009
upperneck 10.7678 -2.05675 2.26522
head 4.58103 -0.901951 0.660319
rclavicle -1.17159e-014 9.14409e-015
rhumerus -28.0794 34.8319 -90.0465
rradius 122
rwrist -4.27527
rhand -36.3672 -14.5121
rfingers 7.12502
rthumb -9.46408 -44.2796
lclavicle -1.17159e-014 9.14409e-015
lhumerus -20.4191 -31.1531 90.0453
lradius 121.273
lwrist 6.96824
lhand -24.7293 -71.7327
lfingers 7.12502
lthumb 1.77303 -41.7604
rfemur -29.9489 -5.03472 16.8104
rtibia 37.8494
rfoot -23.7686 -5.38606
rtoes -22.1396
lfemur -31.244 1.74103 -18.4396
ltibia 36.9006
lfoot -18.441 9.07552
ltoes -18.9886
314
root -0.543029 16.4511 -7.93658 16.2364 -0.864324 1.03314
lowerback -14.1127 -1.48148 -3.50592
upperback -3.39154 -1.52052 1.23225
thorax 4.44696 -0.787697 3.00959
lowerneck -5.36234 -1.32729 -0.162838
upperneck 10.6585 -2.04149 2.38881
head 4.51596 -0.894422 0.722139
rclavicle 2.14687e-014 2.98177e-015
rhumerus -27.1871 34.4344 -89.7038
rradius 121.612
rwrist -6.47225
rhand -36.2278 -10.4072
rfingers 7.12502
rthumb -9.32961 -40.1807
lclavicle 2.14687e-014 2.98177e-015
lhumerus -20.204 -31.3979 89.9901
lradius 120.888
lwrist 6.82887
lhand -24.5615 -73.69
lfingers 7.12502
lthumb 1.93512 -43.719
rfemur -29.9142 -5.04694 16.8737
rtibia 37.9053
rfoot -23.8276 -5.36982
rtoes -21.9703
lfemur -31.2498 1.61229 -18.3461
ltibia 37.0047
lfoot -18.4529 9.26112
ltoes -19.4547
315
root -0.545147 16.4467 -7.94159 16.1169 -0.852609 1.02425
lowerback -14.0503 -1.47028 -3.54406
upperback -3.33748 -1.50274 1.24848
thorax 4.4699 -0.780589 3.05201
lowerneck -5.24201 -1.33022 -0.198421
upperneck 10.6209 -2.04599 2.44
head 4.47927 -0.896726 0.74601
rclavicle -5.61567e-015 -1.21259e-014
rhumerus -26.8933 34.5613 -89.8289
rradius 121.389
rwrist -6.59468
rhand -35.8844 -10.4796
rfingers 7.12502
rthumb -8.99828 -40.2677
lclavicle -5.61567e-015 -1.21259e-014
lhumerus -20.0906 -32.2522 90.1345
lradius 120.906
lwrist 6.44414
lhand -26.5248 -71.0911
lfingers 7.12502
lthumb 0.0389235 -41.1114
rfemur -29.8463 -4.91997 16.8606
rtibia 37.9864
rfoot -23.8048 -5.48132
rtoes -21.9158
lfemur -31.1812 1.61142 -18.3207
ltibia 37.0745
lfoot -18.5381 9.27237
ltoes -19.3644
316
root -0.545842 16.4466 -7.94383 16.0047 -0.828063 1.15139
lowerback -13.9825 -1.48636 -3.69411
upperback -3.28852 -1.50292 1.22
thorax 4.48734 -0.783149 3.1076
lowerneck -5.36994 -1.31056 -0.214557
upperneck 10.7663 -2.02834 2.49383
head 4.55923 -0.883775 0.768051
rclavicle 7.97623e-015 6.95746e-015
rhumerus -26.8858 34.9064 -90.1757
rradius 121.259
rwrist -6.327
rhand -35.4505 -12.1711
rfingers 7.12502
rthumb -8.57957 -41.9768
lclavicle 7.97623e-015 6.95746e-015
lhumerus -19.9275 -32.2409 90.1254
lradius 120.252
lwrist 6.34523
lhand -26.6121 -70.1284
lfingers 7.12502
lthumb -0.0454603 -40.1487
rfemur -29.7727 -4.98439 16.7318
rtibia 38.0859
rfoot -23.8605 -5.51703
rtoes -22.1048
lfemur -31.1097 1.58701 -18.4537
ltibia 37.1415
lfoot -18.6515 9.1349
ltoes -18.7348
317
root -0.544486 16.4437 -7.94222 15.9214 -0.768747 1.21594
lowerback -13.9616 -1.49799 -3.72685
upperback -3.23146 -1.51195 1.18585
thorax 4.53679 -0.789634 3.0883
lowerneck -5.70391 -1.32928 -0.179781
upperneck 11.0532 -2.06421 2.47425
head 4.73257 -0.895931 0.752589
rclavicle 7.55382e-015 -5.36719e-015
rhumerus -26.7219 34.8508 -90.334
rradius 120.785
rwrist -6.87822
rhand -35.417 -11.7094
rfingers 7.12502
rthumb -8.5472 -41.5165
lclavicle 7.55382e-015 -5.36719e-015
lhumerus -20.1137 -32.2556 90.2984
lradius 119.699
lwrist 6.01903
lhand -27.356 -68.0193
lfingers 7.12502
lthumb -0.763951 -38.0409
rfemur -29.7083 -5.16687 16.6794
rtibia 38.1739
rfoot -23.9296 -5.41404
rtoes -22.2437
lfemur -31.0438 1.54356 -18.5284
ltibia 37.2046
lfoot -18.6709 9.08999
ltoes -18.4744
